<?xml version="1.0" encoding="UTF-8"?>
<!DOCTYPE svg PUBLIC "-//W3C//DTD SVG 1.1//EN" "http://www.w3.org/Graphics/SVG/1.1/DTD/svg11.dtd">
<!-- Creator: CorelDRAW 2021 (64-Bit) -->
<svg xmlns="http://www.w3.org/2000/svg" xml:space="preserve" width="78.7571mm" height="33.5369mm" version="1.1" style="shape-rendering:geometricPrecision; text-rendering:geometricPrecision; image-rendering:optimizeQuality; fill-rule:evenodd; clip-rule:evenodd"
viewBox="0 0 2220.75 945.66"
 xmlns:xlink="http://www.w3.org/1999/xlink"
 xmlns:xodm="http://www.corel.com/coreldraw/odm/2003">
 <defs>
  <style type="text/css">
   <![CDATA[
    .fil2 {fill:#002791}
    .fil1 {fill:#E61822}
    .fil0 {fill:#E6E6E6}
   ]]>
  </style>
 </defs>
 <g id="Capa_x0020_1">
  <metadata id="CorelCorpID_0Corel-Layer"/>
  <path class="fil0" d="M472.83 0l1654.11 0c51.6,0 93.81,42.21 93.81,93.81l0 379.02c0,260.06 -212.77,472.83 -472.83,472.83l-1275.1 0c-260.06,0 -472.83,-212.77 -472.83,-472.83l0 -0c0,-260.06 212.77,-472.83 472.83,-472.83z"/>
  <polygon class="fil1" points="1178.12,262.24 1082.48,854.13 1187.75,854.52 1288.96,851.39 1372.5,377.31 1601.67,854.41 1818.64,854.92 1830.76,851.3 1960.79,79.86 1752.15,79.4 1670.82,564.21 1495.04,202.01 1435.43,80.29 1371.95,80.31 1209.81,78.7 "/>
  <path class="fil2" d="M658.15 522.62c0,-1.15 -0.71,-1.62 -1.55,-2.45 -0.6,-0.6 -1.26,-0.98 -2.01,-1.44 -7.23,-4.38 -20.12,-0.87 -26.89,-8.15 -2.86,-3.08 -1.99,-6.82 -3.94,-10.13 -1.89,-3.22 -4.95,-4.46 -8.56,-5.37 -4.63,-1.17 -11.08,-1.14 -14.66,-4.65 -0.57,-0.56 -0.52,-0.3 -1.31,-0.48 -1.9,-0.43 -3.21,-1.48 -4.16,-2.87 -0.86,-1.25 -1.53,-3.37 -1.93,-5.11 -0.22,-0.97 -0.85,-4.88 -2.15,-4.88 -1.13,0 -1.98,0.55 -2.74,1.12 -1.15,0.86 -0.74,1.2 -2.22,0.53 -3.09,-1.39 -5.59,-2.18 -8.83,-0.55 -3.62,1.81 -5.22,2.9 -10.06,2.9 0.05,-0.56 0.14,-0.31 0.14,-0.83 0,-2.1 -1.07,-3.39 -2.17,-4.45 -1.37,-1.33 -4.76,-2.92 -6.74,-1.43 -0.66,0.49 -0.73,0.83 -1.16,1.46 -2.2,0 -5.25,0.36 -7.39,0.75 -4.89,0.89 -10.59,2.69 -12.98,7.43 -0.43,0.85 -0.92,2.01 -1.01,3.13l-7.8 0.47c-1.35,0.2 -2.93,0.08 -4.33,0.08 -3.55,0 -9.45,-0.72 -11.95,-2.53 -1.42,-1.03 -1.99,-5.13 -1.99,-6.84 0,-2.76 0.55,-5.24 0.55,-8 0,-3.33 -0.12,-5.68 -2.76,-7.59 -1.45,-1.05 -4.63,-1.79 -7.04,-1.79 -1.56,0 -7.59,2.07 -7.59,-1.52 0,-2.88 1.23,-5.59 2.19,-8.16 0.56,-1.48 2.09,-6.06 2.09,-7.57 0,-1.47 -0.23,-2.83 -1.65,-3.45 -1.02,-0.44 -2.35,-0.43 -3.65,-0.2 -3.17,0.56 -6.09,2.08 -8.68,3.87 -2,1.38 -4.09,3.09 -5.18,5.3 -0.42,0.83 -0.25,0.7 -1.1,1.11 -1.85,0.9 -4.31,1.56 -6.85,0.91 -1.61,-0.41 -2.85,-1.17 -4.02,-2.19 -5.23,-4.54 -7.02,-13.89 -4.31,-20.1 0.1,-0.22 0.18,-0.41 0.3,-0.67 1.03,-2.16 1.07,-1.07 1.43,-3.4 0.24,-1.57 0.62,-3.27 1.3,-4.63 4.89,-9.89 18.79,-5.59 28.26,-7.18 1.57,-0.27 3.12,-0.7 4.47,-1.45 0.27,-0.16 1.12,-0.73 1.33,-0.73 4.16,0 6.97,1.62 9.49,4.16 3.21,3.26 4.98,7.82 6.1,12.24 0.23,0.92 0.67,2.97 0.69,4 1.87,-0.9 8.85,-0.34 5.58,-11.78 -1.64,-5.73 -5.63,-15.38 1.66,-18.64 1.57,-0.7 3.25,-1.04 4.77,-1.71 1.74,-0.76 2.48,-1.33 3.75,-2.59 1.14,-1.12 1.86,-2.57 2.45,-4.03 0.54,-1.35 1.05,-3.43 1.36,-4.98 0.36,-1.73 0.86,-3.48 1.47,-5.01 0.95,-2.37 2.13,-3.84 3.89,-5.63 0.88,-0.91 1.04,-0.65 2.66,-0.65 6.37,0.01 3.4,-5.01 4.19,-8.08 0.5,-1.93 3.29,-3.23 5.01,-2.36 0.45,0.23 0.66,0.3 1.23,0.43 4.92,1.13 15.36,-1.12 15.36,-5.57 0,-0.91 -0.26,-1.92 -0.72,-2.6 -0.2,-0.3 -0.34,-0.49 -0.58,-0.79 -0.27,-0.34 -0.41,-0.42 -0.63,-0.75 -1.82,1.22 -3.79,3.36 -6.79,0.72 -1.49,-1.31 -2.74,-3 -4.14,-4.41 -1.02,-1.03 -1.71,-1.18 -2.45,-1.82 4.82,0 8.17,2.35 12.03,-2.04l1.37 -1.44c0,0.05 -0.06,0.07 -0.06,0.12l-0.05 2.61c0.42,2.26 1.71,4.02 3.47,5.35 2.02,1.53 5.53,2.7 9.03,2.7 1.3,0 3.71,-0.29 4.55,-0.69 -0.39,-0.73 -0.89,-1.23 -1.42,-1.89l-10.32 -10.09c-4.44,-3.52 -9.16,-6.72 -13.94,-9.79 -2.8,-1.79 -5.66,-3.39 -8.44,-5.21 -2.97,-1.95 -2.02,-0.56 -3.06,-3.69 -1.62,-4.87 -4.44,-7.7 -8.33,-10.29 -0.41,-0.27 -0.65,-0.4 -1.15,-0.64 -4.02,-1.99 -8.21,-3.32 -12.56,-4.4 -1,-0.25 -2.32,-0.51 -2.7,-0.74l8.16 0.53c2.62,0.28 5.28,0.43 7.88,0.81 1.42,0.21 2.07,0.27 3.4,0.87 2.87,1.3 5.91,2.81 8.31,4.79 3.36,2.78 25.34,14.93 25.34,9.82 0,-3.07 -3.91,-5.44 -4.41,-7.58 0.95,0.08 2.08,0.7 2.98,1.02 1.05,0.37 1.97,0.74 2.99,1.14 3.82,1.53 7.63,3.19 11.27,5.01l5.38 2.76c5.6,2.78 14.78,8.8 19.9,12.65 3.44,2.59 6.91,5.21 10.06,8.15 0.42,0.39 0.67,0.52 1.1,0.97l2.17 1.96c0.76,0.58 1.29,1.31 2.04,1.97 0.44,0.39 0.67,0.52 1.1,0.96 6.64,6.7 12.26,13.09 17.93,20.69l5.01 7.27c0.54,0.81 1,1.62 1.54,2.46l3.06 5.08c3.42,6.27 6.73,12.48 9.39,19.16 0.41,1.02 0.76,1.83 1.13,2.87 1.82,5.13 3.71,9.9 5.07,15.34 1.72,6.87 3.23,13.1 4.21,20.2 0.65,4.72 1.33,10.03 1.38,14.9 0.01,0.8 0.15,1.04 0.15,1.92l0.13 6.07c0,1.61 -0.14,2.77 -0.14,4.27 0,0.74 0,1.47 0,2.21l-0.75 10.28c-0.56,3.97 -0.95,7.7 -1.62,11.63 -0.19,1.15 -0.42,2.54 -0.7,3.72 -1.13,4.77 -2,9.51 -3.51,14.14 -3.12,9.57 -5.19,15.88 -9.93,25.37l-6.21 11.45c-4.52,7.59 -10.31,15.92 -16.15,22.47 -1.91,2.14 -3.75,4.32 -5.79,6.35 -0.21,0.21 -0.36,0.34 -0.55,0.56 -1.15,1.37 -2.51,2.65 -3.8,3.92l-2.28 2.14c-1.75,1.77 -5.03,4.4 -7.04,6.2l-3.68 2.94c-0.47,0.36 -0.76,0.61 -1.24,0.97l-14.39 9.88c-0.95,0.57 -1.81,1.08 -2.76,1.65l-5.68 3.14c-1.97,0.98 -3.79,2.1 -5.87,2.96 -0.56,0.23 -0.95,0.46 -1.48,0.72l-3.04 1.38c-3.61,1.68 -7.36,2.94 -11.07,4.38 -5.35,2.07 -11.31,3.71 -17.02,5.04 0.15,-0.13 -0.05,0 0.24,-0.18l10.6 -5.54c1.78,-1.07 6.34,-3.02 8.88,-4.35 5.03,-2.64 10.16,-5.26 14.9,-8.41 0.67,-0.45 1.31,-0.82 2.02,-1.29 3.31,-2.21 6.48,-4.49 9.59,-6.96l6.29 -5.29c0.26,-0.28 0.43,-0.66 0.64,-1.01 5.54,-9.12 17.16,-14.57 24.8,-21.68 0.35,-0.33 0.54,-0.4 0.9,-0.75l1.66 -1.66c0.33,-0.36 0.4,-0.54 0.76,-0.9 2.2,-2.2 3.96,-5.21 5.2,-8.04 0.37,-0.82 0.55,-1.56 0.85,-2.46 2.12,-6.31 5.65,-11.91 9.04,-17.58 2.09,-3.5 4.15,-7.06 5.68,-10.87 1.38,-3.45 2.5,-6.96 2.5,-10.88zm-69.79 -52.41c0,3.17 -1.18,4.95 -1.24,5.65 3.07,-0.71 4,-2.77 4,-5.93 0,-4.16 -1.27,-7.63 -2.21,-11.04l-1.34 -3.9c-0.25,-0.62 -0.49,-1.62 -0.87,-1.89 -1,4.3 -3.7,-1.09 -5.52,-1.52 -0.48,0.32 -0.48,0.38 -0.57,1.1 -0.14,1.07 0.49,1.6 1.62,3.24l1.99 2.98c1.85,2.78 4.14,7.13 4.14,11.31zm-64.13 -47.03c4.05,0 3.41,1.83 2.54,5.3 -0.95,3.79 -1.51,6.15 3.67,6.15 0.23,-0.97 1.49,-4.82 2.34,-4.82 0.95,0 1.94,3.56 2.73,4.85 1.09,1.79 1.62,2.9 3.59,4.15 0.59,0.37 1.24,0.43 1.71,0.77 0,0 2.46,2.24 2.46,0.03 0,-1.87 -0.09,-2.44 -0.6,-4.23 -0.18,-0.63 -0.29,-0.95 -0.48,-1.45 -0.38,-0.98 -0.13,-0.74 -1.06,-1.02 -1.91,-0.56 -5.06,-5.55 -6.79,-7.41 -1.02,-1.09 -1.65,-1.99 -3.07,-3 -2.42,-1.72 -4.19,-1.67 -6.4,-0.06 -0.39,0.29 -0.5,0.27 -0.63,0.75zm-14.21 20.41c0.68,-0.92 3.31,-2.21 4.83,-2.21 3.74,0 4.34,0.73 7.39,1.99l2.91 1.36c0.62,0.31 2.4,1.14 3.08,1.2 0,5.15 4.28,4.2 7.64,3.36 1.81,-0.45 5.17,-1.62 6.86,-1.33 2.09,0.37 1.56,1.64 1.91,2.38 -1.84,0.89 -3.45,1.18 -3.45,3.03 0,1.56 5.32,2.77 6.9,2.89 2.44,0.18 1.6,0.01 3.03,0.01 0.13,0.5 0.64,1.24 1.24,1.24 1.25,0 2.3,-2.21 3.58,-2.21 1.67,0 3.26,0.26 5.32,-0.33 3.3,-0.94 4.57,-3.1 2.05,-4.97 -0.64,-0.48 -1.41,-1 -2.13,-1.32 -3.65,-1.61 -2.58,-0.97 -6.48,-0.97 -2.35,0 -4.42,-0.89 -5.96,-2.44 -1.61,-1.62 -2.53,-3.21 -3.97,-4.45 -6.67,4.47 -14.55,-2.4 -21.57,-5.32 -5.43,-2.26 -10.13,-3.21 -15.38,-0.05 -1.36,0.82 -3.7,2.06 -4.46,3.41 -1.15,2.08 3.29,2.69 6.01,4.26 0.37,0.21 0.34,0.25 0.64,0.46zm-88.54 -28.41c0.23,-0.28 0.23,0.06 0.39,0.3l1.95 3.01c4.44,7.42 8.15,15.45 9.86,24.07 0.3,1.54 0.68,3.25 0.77,4.89 0.06,1.33 0.16,1.16 0.93,1.82 0.55,0.47 1.03,0.83 1.59,1.31 5.93,5.01 14.01,10.6 21.79,12.14 1.59,0.32 3.6,0.7 5.2,0.58 0.96,-0.07 1.11,0.08 1.98,0.52l5.75 2.8c2.94,1.47 9.85,4.99 12.9,6.82l7.24 4.21c0.87,0.52 4.23,2.31 4.62,3.09 0.85,1.67 0.8,2.26 2.21,4.28 3.94,5.65 10.12,9.33 16.41,11.87 0.86,0.35 3.5,1.39 4.34,1.46 0.92,-1.75 1.67,-4 4.13,-4 4.03,0 6.9,8.35 6.9,11.86 0,2.89 -0.3,3.18 -2.4,5.87 -0.36,0.45 -0.63,0.76 -0.98,1.22 -0.67,0.85 -1.31,1.6 -2.02,2.39l-2.07 2.48c-0.36,0.4 -0.66,0.77 -0.99,1.22 -0.36,0.48 -0.61,0.77 -0.97,1.24 -2.33,3.08 -4.72,7.19 -3.88,11.45 0.14,0.72 0.37,1.02 0.49,1.57 -0.17,0.27 -0.24,0.29 -0.43,0.54 -5.1,6.48 1.26,12.69 5.18,17.89 1.74,2.31 3.57,4.64 4.63,7.37 0.11,0.27 0.19,0.61 0.34,0.9 0.15,0.31 0.33,0.5 0.51,0.73 1.59,2.11 4.34,7.22 6.6,10.37 0.33,0.46 0.76,0.93 1.1,1.38 2.52,3.26 6.31,5.82 10.47,6.63 1.61,0.31 3.12,2.13 4.09,3.36 6.75,8.62 -2.13,21.86 -5.69,28.26 -0.59,1.07 -1.18,1.95 -1.79,3.03 -1.16,2.06 -2.45,4.06 -3.39,6.26 -1.51,3.53 -2.33,3.58 -4.02,5.77 -1.63,2.11 -5.93,5.49 -6.56,8.19l-3.6 0.27c-1.91,0.16 -4.57,-0.01 -6.47,0.15 -1.42,0.12 -3.46,0.29 -5.03,0.05 -1.56,-0.23 -6.61,-0.23 -8.77,-0.33 -0.61,-0.03 -0.57,-0.12 -1.24,-0.14 -4.01,-0.1 -10.07,-1.03 -14.15,-1.71 -12.09,-2.02 -23,-5.17 -33.02,-9.18 -2.47,-0.99 -4.97,-1.91 -7.36,-3.13 -2.34,-1.18 -4.8,-2.09 -7.04,-3.44l-6.79 -3.69c-2.24,-1.22 -4.47,-2.62 -6.58,-4.04 -3.14,-2.11 -6.26,-4.17 -9.29,-6.44l-8.06 -6.43c-0.29,-0.24 -0.4,-0.39 -0.73,-0.65l-5.58 -5.04c-2.31,-1.85 -5.56,-5.56 -7.85,-7.87l-4.9 -5.59c-3.72,-4.18 -8.18,-10.41 -11.28,-15.07 -2.58,-3.89 -5.75,-8.98 -7.86,-13.24l-3.54 -7.08c-0.32,-0.63 -0.5,-1.15 -0.83,-1.79 -3.46,-6.88 -8.46,-21.66 -10.07,-29.37 -1.25,-5.94 -2.53,-11.78 -3.21,-17.89 -0.27,-2.41 -0.62,-4.79 -0.69,-7.17 -0.02,-0.63 -0.09,-0.59 -0.13,-1.11 -0.03,-0.45 0.02,-0.91 -0.03,-1.35 -0.16,-1.45 -0.25,-3.36 -0.25,-4.99 0,-2.7 -0.32,-5.76 -0.02,-8.43 0.12,-1.02 -0.01,-2.37 0.02,-3.43 0.02,-0.69 0.14,-0.76 0.15,-1.51 0.04,-3.4 0.44,-7.59 0.86,-11 0.24,-1.89 0.5,-3.98 0.83,-5.93 1.86,-11.03 4.43,-21.89 8.47,-32.22 0.65,-1.66 1.2,-3.23 1.92,-4.83l2.08 -4.82c1.35,-3.18 4.92,-10.09 6.88,-13.4l2.55 -4.35c2.94,-4.89 6.3,-9.46 9.69,-14.03 2.15,-2.89 4.6,-5.54 6.84,-8.34l9.16 -9.6c0.61,-0.62 1.16,-1.02 1.79,-1.65 0.29,-0.29 0.53,-0.56 0.83,-0.82l12.04 -10.03c0.7,-0.52 1.29,-0.96 1.97,-1.48 2.56,-1.92 5.27,-3.82 7.99,-5.52 0.75,-0.47 1.37,-0.85 2.12,-1.33 0.49,-0.31 1.68,-1.13 2.18,-1.27 -1.13,1.7 -2.39,3.41 -3.68,5.01 -0.79,0.97 -2.21,2.76 -2.57,3.95 -0.28,0.9 0.52,0.86 1.15,0.56 0,2.88 -1.37,6.19 -2.4,8.77 -2.08,5.19 -4.67,10.19 -8.53,14.09 -0.7,0.71 -1.22,1.05 -1.82,1.91 -2.81,4.05 -5.48,12.09 -5.46,17.16 0.01,1.8 -0.18,1.25 -0.01,3.46 0.22,2.84 0.65,6.6 2.99,8.32 0.59,0.43 0.47,0.43 0.47,1.32 0,0.8 0.14,0.96 0.14,1.8 -0,1.58 0.4,5.17 0.58,6.87 0.12,1.1 0.27,2.27 0.42,3.45 0.4,3.25 1.88,12.84 3.24,15.52 0.96,1.87 2.85,6.43 5.15,6.43 1.59,0 1.93,-3.61 1.93,-5.38 0,-2.2 -0.34,-4.8 -0.77,-6.67 -0.24,-1.03 -1.45,-5.22 -1.99,-5.46zm79.99 -90.47c3.22,0 8.32,0.32 10.63,0.15 1.46,-0.12 2.59,-0.28 3.57,-0.84 1.15,-0.65 1.57,-1.38 2.07,-2.34 -4.86,-2.57 -2.01,-4.83 1.38,-4.83 1.77,0 2.69,-0.12 4.4,0.43 0.87,0.28 1.22,0.57 1.94,0.95 -0.39,0.53 -1.34,0.84 -1.96,1.21 -1.47,0.89 -2.46,1.39 -3.66,2.68 -2.71,2.89 1.18,6.42 1.62,11.69 1,-0.52 1.21,-0.47 2.07,-0.27 0.23,0.98 0.17,1.54 -0.32,2.57 -0.28,0.59 -0.54,1.29 -1.06,1.42 0,-1.46 0.69,-1.23 0.69,-2.34 0,-2.58 -6.53,-0.81 -5.02,4.74 0.13,0.47 0.29,0.96 0.61,1.33 -0.19,0.26 -0.09,0.18 -0.25,-0.02 -0.08,-0.1 -0.09,-0.11 -0.19,-0.22 -0.78,-0.85 -1.99,-1.6 -3,-2.1 -0.67,-0.33 -1.24,-0.59 -1.98,-0.92 -0.72,-0.32 -1.4,-0.51 -2.14,-0.75 -1.42,-0.47 -2.92,-0.94 -4.43,-1.36 -4.04,-1.13 -7.77,-2.24 -11,-4.86 -1.22,-0.99 0.29,-4.02 1.46,-4.95 0.99,-0.79 2.83,-1.35 4.58,-1.35zm-157.64 145.09l0 6.07c0,1.88 0.14,3.34 0.14,5.11l0.24 3.62c0.06,0.47 0.01,0.87 0.04,1.33 0.96,12.2 3.14,24.28 6.57,35.78 1.59,5.33 3.44,10.57 5.51,15.73 0.52,1.31 0.99,2.43 1.54,3.71l5.09 10.77 3.77 6.85c0.31,0.57 0.65,1.08 0.96,1.66 0.3,0.56 0.64,1.09 0.98,1.65l7.42 11.19 10.5 13.22c1.13,1.47 2.57,2.81 3.83,4.17l3.93 4.07c0.91,0.91 1.72,1.71 2.62,2.62 1.53,1.53 3.18,2.88 4.76,4.35 0.28,0.25 0.41,0.45 0.7,0.68l13.3 10.56c2.51,1.89 5.2,3.72 7.88,5.36 2.21,1.35 4.34,2.77 6.61,4.01 4.72,2.57 6.88,3.82 12.14,6.34 0.69,0.33 1.15,0.6 1.86,0.89 0.57,0.23 1.2,0.54 1.81,0.81 0.57,0.26 1.22,0.57 1.8,0.82 11.1,4.99 24.6,8.86 36.44,11.14 6.8,1.31 13.02,1.98 19.96,2.52l3.73 0.27c1.84,0 3.31,0.13 5.24,0.13l6.07 0c1.88,0 3.34,-0.14 5.11,-0.13 3.16,0.01 12.49,-1.02 14.68,-1.32 8.82,-1.22 18.09,-2.98 26.26,-5.59 3.35,-1.07 6.73,-2.02 9.95,-3.29 0.63,-0.25 1.24,-0.47 1.91,-0.72 3.79,-1.4 7.52,-3.18 11.27,-4.72 0.67,-0.28 1.12,-0.56 1.76,-0.86l7.08 -3.54c0.62,-0.31 1.1,-0.61 1.7,-0.92 0.54,-0.28 1.14,-0.66 1.66,-0.96l8.38 -5c3.2,-2.05 6.34,-4.19 9.38,-6.48l5.99 -4.62c0.53,-0.43 0.92,-0.75 1.44,-1.18l2.91 -2.47c0.54,-0.44 0.88,-0.77 1.42,-1.2 2.43,-1.94 9.76,-9.23 11.39,-11.09 0.23,-0.26 0.44,-0.44 0.69,-0.69l6.28 -7.1c1.98,-2.23 5.23,-6.33 6.97,-8.89 0.74,-1.09 1.53,-2.07 2.24,-3.15 3.51,-5.34 7.23,-10.62 10.11,-16.36l5.33 -10.67c2.17,-4.87 4.31,-9.95 6.05,-15.19 0.91,-2.71 1.74,-5.21 2.56,-8.06 1.6,-5.58 3.1,-11.4 4.06,-17.18 0.51,-3.05 1.04,-5.99 1.41,-9.21 1.73,-15.14 1.86,-28.47 0.01,-43.62 -0.38,-3.12 -0.83,-6.26 -1.42,-9.2 -2.43,-12.22 -5.01,-21.75 -9.51,-32.98 -1.24,-3.1 -2.52,-6.25 -4,-9.24 -0.28,-0.58 -0.6,-1.12 -0.87,-1.75 -0.82,-1.92 -1.77,-3.5 -2.68,-5.33 -1.45,-2.91 -3.12,-5.69 -4.78,-8.46l-6.3 -9.7c-2.92,-4.12 -5.95,-8.17 -9.2,-12.04 -5.03,-5.98 -10.36,-11.73 -16.22,-16.89l-4.97 -4.41c-0.45,-0.43 -0.95,-0.77 -1.44,-1.18 -5.32,-4.48 -11.03,-8.58 -16.89,-12.34 -3.25,-2.09 -6.55,-4.09 -9.95,-5.91 -4.08,-2.19 -8.15,-4.39 -12.45,-6.17 -0.62,-0.26 -1.2,-0.53 -1.81,-0.81 -0.61,-0.3 -1.24,-0.55 -1.84,-0.78l-7.63 -2.99c-10.83,-4.25 -24.77,-7.31 -36.31,-8.92 -3.18,-0.45 -6.39,-0.68 -9.6,-1.03 -0.41,-0.05 -0.81,0.01 -1.21,-0.03 -0.52,-0.04 -0.58,-0.13 -1.25,-0.14 -2.58,-0.02 -5.13,-0.27 -7.86,-0.27 -6.95,0 -13.84,0.14 -20.67,0.85 -11.87,1.24 -23.71,3.64 -35,7.34 -3.98,1.29 -7.84,2.71 -11.73,4.26 -3.69,1.48 -7.43,3.1 -10.98,4.88l-5.2 2.67c-4.88,2.41 -10.35,5.85 -14.95,8.91 -2.63,1.74 -5.26,3.55 -7.75,5.49l-5.87 4.61c-2.93,2.39 -5.77,4.88 -8.5,7.51l-1.38 1.24c-2.19,2.2 -4.57,4.3 -6.56,6.69 -0.41,0.49 -0.87,0.84 -1.3,1.31 -0.28,0.3 -0.29,0.39 -0.56,0.69 -3.12,3.54 -6.3,7.07 -9.14,10.86 -1.89,2.53 -3.81,5.03 -5.57,7.67 -2.47,3.72 -4.99,7.43 -7.16,11.32 -0.34,0.6 -0.6,1.09 -0.95,1.67 -0.19,0.31 -0.25,0.48 -0.43,0.81l-2.39 4.36c-1.06,1.96 -2.62,5.04 -3.48,7.15l-6.09 15.01c-1.92,4.8 -3.56,11.26 -4.86,16.39 -1.43,5.67 -2.43,11.59 -3.34,17.9 -0.52,3.58 -0.77,7.21 -1.05,10.81 -0.24,3.04 -0.41,5.89 -0.41,8.98z"/>
  <path class="fil2" d="M1178.12 262.24l345.62 -1.08 -88.31 -180.87c-47.01,-3.73 -330.24,-0.58 -396.3,-0.71 -112.28,-0.23 -224.58,0.39 -336.86,0.3 -92.98,-0.08 -235.22,-9.95 -319.45,14.07 -109.39,31.19 -192.71,94.57 -244.55,175.11 -35.73,55.51 -56.03,121.33 -60.89,190.72 -13.39,191.31 106.3,342.6 278.94,392.34 49.26,14.19 102.53,16.91 154.41,15.34l136.72 -19.73c7.73,-3.59 4.19,-1.12 8.97,-6.32l32.2 -183.41c-14.47,0.87 -49.79,12.43 -69.73,16 -121.19,21.68 -264.09,16.74 -323,-108.35 -68.61,-145.7 37.73,-295.36 191.85,-302.13l356.22 -1.24c-2.26,43.1 -16.17,102.8 -22.83,148.01 -10.47,71.02 -73.98,425.19 -70.71,443.65l206.91 0.66 99.79 -591.51 121.01 -0.85z"/>
 </g>
</svg>
