<?xml version="1.0" encoding="UTF-8"?>
<!DOCTYPE svg PUBLIC "-//W3C//DTD SVG 1.1//EN" "http://www.w3.org/Graphics/SVG/1.1/DTD/svg11.dtd">
<!-- Creator: CorelDRAW 2021 (64-Bit) -->
<svg xmlns="http://www.w3.org/2000/svg" xml:space="preserve" width="66.8293mm" height="28.0188mm" version="1.1" style="shape-rendering:geometricPrecision; text-rendering:geometricPrecision; image-rendering:optimizeQuality; fill-rule:evenodd; clip-rule:evenodd"
viewBox="0 0 984.85 412.91"
 xmlns:xlink="http://www.w3.org/1999/xlink"
 xmlns:xodm="http://www.corel.com/coreldraw/odm/2003">
 <defs>
  <style type="text/css">
   <![CDATA[
    .fil0 {fill:black}
   ]]>
  </style>
 </defs>
 <g id="Capa_x0020_1">
  <metadata id="CorelCorpID_0Corel-Layer"/>
  <path class="fil0" d="M304.06 232.47c0,-0.6 -0.37,-0.85 -0.81,-1.28 -0.32,-0.31 -0.66,-0.51 -1.05,-0.75 -3.78,-2.29 -10.51,-0.46 -14.05,-4.26 -1.5,-1.61 -1.04,-3.57 -2.06,-5.29 -0.99,-1.68 -2.59,-2.33 -4.47,-2.81 -2.42,-0.61 -5.79,-0.6 -7.66,-2.43 -0.3,-0.29 -0.27,-0.16 -0.69,-0.25 -0.99,-0.22 -1.68,-0.77 -2.18,-1.5 -0.45,-0.65 -0.8,-1.76 -1.01,-2.67 -0.11,-0.51 -0.45,-2.55 -1.12,-2.55 -0.59,0 -1.03,0.29 -1.43,0.59 -0.6,0.45 -0.38,0.63 -1.16,0.28 -1.61,-0.73 -2.92,-1.14 -4.62,-0.29 -1.89,0.95 -2.73,1.51 -5.26,1.51 0.03,-0.3 0.07,-0.16 0.07,-0.43 0,-1.1 -0.56,-1.77 -1.13,-2.33 -0.72,-0.69 -2.49,-1.52 -3.52,-0.75 -0.35,0.26 -0.38,0.44 -0.6,0.76 -1.15,0 -2.75,0.19 -3.86,0.39 -2.56,0.46 -5.54,1.41 -6.78,3.89 -0.22,0.45 -0.48,1.05 -0.53,1.63l-4.08 0.25c-0.71,0.11 -1.53,0.04 -2.27,0.04 -1.86,0 -4.94,-0.38 -6.24,-1.33 -0.74,-0.54 -1.04,-2.68 -1.04,-3.58 0,-1.45 0.29,-2.74 0.29,-4.18 0,-1.74 -0.06,-2.97 -1.44,-3.97 -0.76,-0.55 -2.42,-0.94 -3.68,-0.94 -0.81,0 -3.96,1.08 -3.96,-0.79 0,-1.5 0.64,-2.92 1.14,-4.26 0.29,-0.77 1.09,-3.17 1.09,-3.95 0,-0.77 -0.12,-1.48 -0.86,-1.8 -0.53,-0.23 -1.23,-0.22 -1.91,-0.1 -1.66,0.29 -3.18,1.09 -4.54,2.02 -1.04,0.72 -2.14,1.61 -2.71,2.77 -0.22,0.44 -0.13,0.36 -0.57,0.58 -0.97,0.47 -2.25,0.82 -3.58,0.47 -0.84,-0.22 -1.49,-0.61 -2.1,-1.14 -2.73,-2.37 -3.67,-7.26 -2.25,-10.51 0.05,-0.11 0.09,-0.22 0.16,-0.35 0.54,-1.13 0.56,-0.56 0.75,-1.78 0.13,-0.82 0.33,-1.71 0.68,-2.42 2.55,-5.17 9.82,-2.92 14.77,-3.75 0.82,-0.14 1.63,-0.37 2.34,-0.76 0.14,-0.08 0.58,-0.38 0.7,-0.38 2.18,0 3.64,0.85 4.96,2.18 1.68,1.7 2.6,4.09 3.19,6.4 0.12,0.48 0.35,1.55 0.36,2.09 0.98,-0.47 4.63,-0.18 2.91,-6.16 -0.86,-2.99 -2.95,-8.04 0.87,-9.74 0.82,-0.37 1.7,-0.55 2.49,-0.89 0.91,-0.4 1.3,-0.7 1.96,-1.35 0.6,-0.59 0.97,-1.34 1.28,-2.11 0.28,-0.71 0.55,-1.79 0.71,-2.6 0.19,-0.9 0.45,-1.82 0.77,-2.62 0.5,-1.24 1.12,-2.01 2.03,-2.94 0.46,-0.47 0.54,-0.34 1.39,-0.34 3.33,0 1.78,-2.62 2.19,-4.23 0.26,-1.01 1.72,-1.69 2.62,-1.23 0.23,0.12 0.35,0.15 0.64,0.22 2.57,0.59 8.03,-0.59 8.03,-2.91 0,-0.47 -0.14,-1 -0.37,-1.36 -0.1,-0.16 -0.18,-0.25 -0.31,-0.41 -0.14,-0.18 -0.22,-0.22 -0.33,-0.39 -0.95,0.64 -1.98,1.76 -3.55,0.38 -0.78,-0.69 -1.43,-1.57 -2.16,-2.3 -0.53,-0.54 -0.89,-0.62 -1.28,-0.95 2.52,0 4.27,1.23 6.29,-1.06l0.72 -0.75c0,0.03 -0.03,0.04 -0.04,0.06l-0.02 1.36c0.22,1.18 0.89,2.1 1.81,2.8 1.06,0.8 2.89,1.41 4.72,1.41 0.68,0 1.94,-0.15 2.38,-0.36 -0.2,-0.38 -0.47,-0.64 -0.74,-0.99l-5.39 -5.27c-2.32,-1.84 -4.79,-3.51 -7.28,-5.12 -1.46,-0.94 -2.96,-1.77 -4.41,-2.72 -1.55,-1.02 -1.06,-0.29 -1.6,-1.93 -0.85,-2.55 -2.32,-4.02 -4.35,-5.38 -0.21,-0.14 -0.34,-0.21 -0.6,-0.34 -2.1,-1.04 -4.29,-1.73 -6.56,-2.3 -0.52,-0.13 -1.22,-0.27 -1.41,-0.39l4.26 0.28c1.37,0.15 2.76,0.22 4.12,0.42 0.74,0.11 1.08,0.14 1.78,0.45 1.5,0.68 3.09,1.47 4.34,2.51 1.76,1.45 13.25,7.8 13.25,5.13 0,-1.6 -2.05,-2.85 -2.3,-3.96 0.5,0.04 1.09,0.37 1.56,0.53 0.55,0.19 1.03,0.39 1.56,0.6 1.99,0.8 3.99,1.67 5.89,2.62l2.81 1.44c2.93,1.45 7.72,4.6 10.4,6.61 1.8,1.35 3.61,2.72 5.26,4.26 0.22,0.2 0.35,0.28 0.58,0.51l1.14 1.03c0.4,0.3 0.68,0.69 1.06,1.03 0.23,0.2 0.35,0.28 0.57,0.5 3.47,3.5 6.41,6.84 9.37,10.82l2.61 3.8c0.28,0.42 0.52,0.84 0.81,1.29l1.6 2.66c1.79,3.28 3.52,6.52 4.91,10.01 0.21,0.53 0.4,0.96 0.59,1.5 0.95,2.68 1.94,5.17 2.65,8.02 0.9,3.59 1.69,6.85 2.2,10.56 0.34,2.46 0.69,5.24 0.72,7.79 0,0.42 0.08,0.54 0.08,1l0.07 3.17c0,0.84 -0.07,1.45 -0.07,2.23 0,0.39 0,0.77 0,1.16l-0.39 5.37c-0.29,2.07 -0.5,4.02 -0.84,6.07 -0.1,0.6 -0.22,1.33 -0.37,1.94 -0.59,2.49 -1.04,4.97 -1.83,7.39 -1.63,5 -2.71,8.3 -5.19,13.26l-3.25 5.98c-2.36,3.96 -5.39,8.32 -8.44,11.74 -1,1.12 -1.96,2.26 -3.02,3.32 -0.11,0.11 -0.19,0.18 -0.29,0.29 -0.6,0.72 -1.31,1.39 -1.98,2.05l-1.19 1.12c-0.92,0.92 -2.63,2.3 -3.68,3.24l-1.92 1.54c-0.25,0.18 -0.4,0.32 -0.65,0.51l-7.52 5.16c-0.5,0.3 -0.94,0.57 -1.44,0.86l-2.97 1.64c-1.03,0.51 -1.98,1.1 -3.07,1.55 -0.29,0.12 -0.5,0.24 -0.78,0.38l-1.59 0.72c-1.88,0.88 -3.85,1.54 -5.79,2.29 -2.8,1.08 -5.91,1.94 -8.9,2.63 0.08,-0.07 -0.02,0 0.13,-0.09l5.54 -2.89c0.93,-0.56 3.31,-1.58 4.64,-2.28 2.63,-1.38 5.31,-2.75 7.78,-4.4 0.35,-0.23 0.68,-0.43 1.06,-0.68 1.73,-1.15 3.39,-2.34 5.01,-3.64l3.29 -2.77c0.13,-0.15 0.22,-0.34 0.34,-0.53 2.9,-4.77 8.97,-7.61 12.96,-11.33 0.18,-0.17 0.28,-0.21 0.47,-0.39l0.86 -0.87c0.17,-0.19 0.21,-0.28 0.4,-0.47 1.15,-1.15 2.07,-2.72 2.72,-4.2 0.19,-0.43 0.29,-0.81 0.45,-1.29 1.11,-3.3 2.95,-6.23 4.72,-9.19 1.09,-1.83 2.17,-3.69 2.97,-5.68 0.72,-1.8 1.31,-3.64 1.31,-5.68zm-36.47 -27.39c0,1.66 -0.62,2.59 -0.65,2.95 1.61,-0.37 2.09,-1.45 2.09,-3.1 0,-2.17 -0.67,-3.98 -1.15,-5.77l-0.7 -2.04c-0.13,-0.32 -0.25,-0.84 -0.46,-0.99 -0.52,2.25 -1.93,-0.57 -2.88,-0.79 -0.25,0.17 -0.25,0.19 -0.3,0.57 -0.07,0.56 0.26,0.84 0.85,1.69l1.04 1.56c0.97,1.45 2.16,3.73 2.16,5.91zm-33.52 -24.58c2.12,0 1.78,0.96 1.33,2.77 -0.5,1.98 -0.79,3.21 1.92,3.21 0.12,-0.51 0.78,-2.52 1.22,-2.52 0.5,0 1.02,1.86 1.43,2.54 0.57,0.93 0.85,1.51 1.87,2.16 0.31,0.19 0.65,0.23 0.89,0.4 0,0 1.29,1.17 1.29,0.01 0,-0.98 -0.04,-1.27 -0.31,-2.21 -0.1,-0.33 -0.15,-0.5 -0.25,-0.76 -0.2,-0.51 -0.07,-0.39 -0.55,-0.53 -1,-0.29 -2.65,-2.9 -3.55,-3.87 -0.53,-0.57 -0.86,-1.04 -1.6,-1.57 -1.27,-0.9 -2.19,-0.87 -3.35,-0.04 -0.2,0.15 -0.26,0.14 -0.33,0.39zm-7.42 10.67c0.35,-0.48 1.73,-1.15 2.52,-1.15 1.96,0 2.27,0.38 3.86,1.04l1.52 0.71c0.32,0.16 1.25,0.6 1.61,0.63 0,2.69 2.24,2.2 3.99,1.76 0.94,-0.24 2.7,-0.85 3.59,-0.69 1.09,0.19 0.81,0.86 1,1.24 -0.97,0.46 -1.8,0.61 -1.8,1.59 0,0.82 2.78,1.45 3.61,1.51 1.28,0.09 0.84,0 1.58,0 0.07,0.26 0.33,0.65 0.65,0.65 0.65,0 1.2,-1.15 1.87,-1.15 0.87,0 1.7,0.13 2.78,-0.17 1.72,-0.49 2.39,-1.62 1.07,-2.6 -0.33,-0.25 -0.74,-0.52 -1.11,-0.69 -1.91,-0.84 -1.35,-0.51 -3.39,-0.51 -1.23,0 -2.31,-0.46 -3.12,-1.28 -0.84,-0.85 -1.32,-1.68 -2.07,-2.33 -3.49,2.34 -7.61,-1.26 -11.27,-2.78 -2.84,-1.18 -5.3,-1.68 -8.04,-0.03 -0.71,0.43 -1.93,1.08 -2.33,1.78 -0.6,1.09 1.72,1.4 3.14,2.23 0.19,0.11 0.18,0.13 0.34,0.24zm529.8 -95.35l0 0 -0.24 -0.5 -14.76 -30.41 -31.15 -63.62c-13.87,-1.1 -67.1,-1.06 -117.03,-0.82l-0.89 -0.01 -0 0.01c-38.18,0.18 -74.28,0.47 -89.19,0.45 -58.68,-0.12 -117.37,0.2 -176.05,0.16 -48.6,-0.04 -122.93,-5.2 -166.95,7.36 -57.17,16.3 -100.72,49.43 -127.81,91.52 -18.67,29.01 -29.28,63.41 -31.82,99.68 -6.99,99.98 55.56,179.05 145.78,205.05 25.74,7.42 53.58,8.84 80.7,8.02l71.45 -10.31c4.04,-1.88 2.19,-0.59 4.69,-3.3l16.83 -95.86c-7.56,0.45 -26.02,6.5 -36.44,8.36 -63.34,11.33 -138.02,8.75 -168.81,-56.63 -35.86,-76.14 19.72,-154.36 100.27,-157.9l186.17 -0.65c-1.18,22.53 -8.45,53.73 -11.93,77.35 -5.47,37.12 -38.66,222.22 -36.95,231.86l108.14 0.34 52.15 -309.14 63.24 -0.44 -49.99 309.34 55.02 0.2 52.9 -1.64 43.66 -247.77 119.77 249.35 113.4 0.27 6.33 -1.89 67.96 -403.17 -109.04 -0.24 -42.5 253.38 -76.87 -158.39zm-576.07 80.5c0.12,-0.15 0.12,0.03 0.2,0.16l1.02 1.57c2.32,3.88 4.26,8.08 5.15,12.58 0.16,0.8 0.36,1.7 0.4,2.55 0.03,0.69 0.09,0.61 0.49,0.95 0.29,0.25 0.54,0.43 0.83,0.68 3.1,2.62 7.32,5.54 11.38,6.35 0.83,0.17 1.88,0.36 2.72,0.3 0.5,-0.04 0.58,0.04 1.04,0.27l3 1.47c1.53,0.77 5.15,2.61 6.74,3.56l3.78 2.2c0.45,0.27 2.21,1.21 2.42,1.62 0.45,0.88 0.42,1.18 1.15,2.24 2.06,2.95 5.29,4.88 8.58,6.2 0.45,0.18 1.83,0.73 2.27,0.76 0.48,-0.91 0.87,-2.09 2.16,-2.09 2.1,0 3.6,4.36 3.6,6.2 0,1.51 -0.16,1.66 -1.26,3.07 -0.18,0.24 -0.33,0.4 -0.51,0.64 -0.35,0.45 -0.69,0.83 -1.06,1.25l-1.08 1.29c-0.19,0.21 -0.34,0.4 -0.52,0.64 -0.19,0.25 -0.32,0.4 -0.51,0.65 -1.22,1.61 -2.47,3.76 -2.03,5.98 0.07,0.38 0.19,0.53 0.26,0.82 -0.09,0.14 -0.13,0.15 -0.23,0.28 -2.66,3.39 0.66,6.63 2.71,9.35 0.91,1.21 1.86,2.43 2.42,3.85 0.05,0.14 0.1,0.32 0.18,0.47 0.08,0.16 0.17,0.26 0.27,0.38 0.83,1.1 2.27,3.77 3.45,5.42 0.17,0.24 0.4,0.48 0.58,0.72 1.32,1.71 3.3,3.04 5.47,3.46 0.84,0.16 1.63,1.11 2.14,1.76 3.53,4.51 -1.11,11.42 -2.98,14.77 -0.31,0.56 -0.62,1.02 -0.94,1.59 -0.6,1.08 -1.28,2.12 -1.77,3.27 -0.79,1.85 -1.22,1.87 -2.1,3.02 -0.85,1.1 -3.1,2.87 -3.43,4.28l-1.88 0.14c-1,0.08 -2.39,-0 -3.38,0.08 -0.74,0.06 -1.81,0.15 -2.63,0.03 -0.82,-0.12 -3.45,-0.12 -4.58,-0.18 -0.32,-0.01 -0.3,-0.06 -0.65,-0.07 -2.1,-0.06 -5.27,-0.54 -7.39,-0.89 -6.32,-1.06 -12.02,-2.7 -17.26,-4.8 -1.29,-0.52 -2.6,-1 -3.84,-1.63 -1.22,-0.62 -2.51,-1.09 -3.68,-1.8l-3.55 -1.93c-1.17,-0.64 -2.34,-1.37 -3.44,-2.11 -1.64,-1.1 -3.27,-2.18 -4.85,-3.37l-4.21 -3.36c-0.15,-0.12 -0.21,-0.21 -0.38,-0.34l-2.91 -2.64c-1.21,-0.96 -2.91,-2.9 -4.1,-4.11l-2.56 -2.92c-1.95,-2.18 -4.28,-5.44 -5.89,-7.87 -1.35,-2.03 -3,-4.7 -4.11,-6.92l-1.85 -3.7c-0.17,-0.33 -0.26,-0.6 -0.43,-0.94 -1.81,-3.6 -4.42,-11.32 -5.27,-15.35 -0.65,-3.11 -1.32,-6.16 -1.68,-9.35 -0.14,-1.26 -0.33,-2.51 -0.36,-3.75 -0.01,-0.33 -0.05,-0.31 -0.07,-0.58 -0.02,-0.23 0.01,-0.47 -0.01,-0.71 -0.08,-0.76 -0.13,-1.76 -0.13,-2.61 0,-1.41 -0.17,-3.01 -0.01,-4.41 0.06,-0.53 -0.01,-1.24 0.01,-1.79 0.01,-0.36 0.07,-0.4 0.08,-0.79 0.02,-1.78 0.23,-3.97 0.45,-5.75 0.12,-0.99 0.26,-2.08 0.43,-3.1 0.97,-5.76 2.32,-11.44 4.43,-16.84 0.34,-0.87 0.63,-1.69 1,-2.53l1.09 -2.52c0.71,-1.66 2.57,-5.28 3.59,-7l1.33 -2.27c1.54,-2.56 3.29,-4.95 5.06,-7.33 1.12,-1.51 2.41,-2.89 3.57,-4.36l4.79 -5.02c0.32,-0.33 0.6,-0.53 0.94,-0.86 0.15,-0.15 0.27,-0.29 0.44,-0.43l6.29 -5.24c0.37,-0.28 0.67,-0.5 1.03,-0.77 1.34,-1.01 2.75,-2 4.18,-2.89 0.39,-0.24 0.72,-0.45 1.11,-0.69 0.26,-0.16 0.88,-0.59 1.14,-0.66 -0.59,0.89 -1.25,1.78 -1.92,2.62 -0.41,0.51 -1.15,1.45 -1.34,2.06 -0.14,0.47 0.27,0.45 0.6,0.29 0,1.51 -0.72,3.24 -1.26,4.58 -1.08,2.71 -2.44,5.33 -4.46,7.37 -0.37,0.37 -0.64,0.55 -0.95,1 -1.47,2.12 -2.87,6.32 -2.85,8.96 0,0.94 -0.09,0.66 -0,1.81 0.12,1.48 0.34,3.45 1.56,4.35 0.31,0.22 0.24,0.23 0.24,0.69 0,0.42 0.07,0.5 0.07,0.94 -0,0.83 0.21,2.7 0.3,3.59 0.06,0.57 0.14,1.19 0.22,1.8 0.21,1.7 0.98,6.71 1.69,8.11 0.5,0.98 1.49,3.36 2.69,3.36 0.83,0 1.01,-1.89 1.01,-2.81 0,-1.15 -0.18,-2.51 -0.4,-3.49 -0.13,-0.54 -0.76,-2.73 -1.04,-2.85zm41.81 -47.28c1.68,0 4.35,0.17 5.56,0.08 0.76,-0.06 1.35,-0.15 1.87,-0.44 0.6,-0.34 0.82,-0.72 1.08,-1.22 -2.54,-1.35 -1.05,-2.52 0.72,-2.52 0.92,0 1.4,-0.06 2.3,0.22 0.45,0.14 0.64,0.3 1.02,0.5 -0.2,0.27 -0.7,0.44 -1.02,0.63 -0.77,0.46 -1.28,0.73 -1.91,1.4 -1.42,1.51 0.62,3.35 0.85,6.11 0.52,-0.27 0.63,-0.25 1.08,-0.14 0.12,0.51 0.09,0.8 -0.17,1.35 -0.14,0.31 -0.28,0.67 -0.55,0.74 0,-0.76 0.36,-0.64 0.36,-1.22 0,-1.35 -3.41,-0.43 -2.62,2.48 0.07,0.25 0.15,0.5 0.32,0.7 -0.1,0.14 -0.05,0.09 -0.13,-0.01 -0.04,-0.05 -0.05,-0.06 -0.1,-0.12 -0.41,-0.45 -1.04,-0.83 -1.57,-1.1 -0.35,-0.17 -0.65,-0.31 -1.03,-0.48 -0.37,-0.17 -0.73,-0.27 -1.12,-0.39 -0.74,-0.25 -1.53,-0.49 -2.32,-0.71 -2.11,-0.59 -4.06,-1.17 -5.75,-2.54 -0.64,-0.52 0.15,-2.1 0.76,-2.59 0.52,-0.41 1.48,-0.71 2.39,-0.71zm-82.39 75.83l0 3.17c0,0.98 0.08,1.75 0.07,2.67l0.13 1.89c0.03,0.24 0,0.46 0.02,0.7 0.5,6.37 1.64,12.69 3.43,18.7 0.83,2.79 1.8,5.52 2.88,8.22 0.27,0.68 0.52,1.27 0.8,1.94l2.66 5.63 1.97 3.58c0.16,0.3 0.34,0.56 0.5,0.86 0.16,0.29 0.33,0.57 0.51,0.86l3.88 5.85 5.49 6.91c0.59,0.77 1.34,1.47 2,2.18l2.05 2.13c0.47,0.48 0.9,0.9 1.37,1.37 0.8,0.8 1.66,1.5 2.49,2.27 0.14,0.13 0.22,0.23 0.37,0.35l6.95 5.52c1.31,0.99 2.72,1.95 4.12,2.8 1.16,0.71 2.27,1.45 3.46,2.1 2.47,1.34 3.6,2 6.34,3.31 0.36,0.17 0.6,0.32 0.97,0.47 0.29,0.12 0.63,0.28 0.95,0.42 0.3,0.13 0.64,0.29 0.94,0.43 5.8,2.61 12.86,4.63 19.05,5.82 3.55,0.68 6.81,1.03 10.43,1.32l1.95 0.14c0.96,0 1.73,0.07 2.74,0.07l3.17 0c0.98,0 1.75,-0.07 2.67,-0.07 1.65,0.01 6.53,-0.53 7.67,-0.69 4.61,-0.64 9.45,-1.56 13.73,-2.92 1.75,-0.56 3.52,-1.05 5.2,-1.72 0.33,-0.13 0.65,-0.24 1,-0.37 1.98,-0.73 3.93,-1.66 5.89,-2.47 0.35,-0.14 0.59,-0.3 0.92,-0.45l3.7 -1.85c0.32,-0.16 0.57,-0.32 0.89,-0.48 0.28,-0.15 0.59,-0.34 0.87,-0.5l4.38 -2.61c1.67,-1.07 3.31,-2.19 4.9,-3.38l3.13 -2.42c0.28,-0.22 0.48,-0.39 0.75,-0.61l1.52 -1.29c0.28,-0.23 0.46,-0.4 0.74,-0.63 1.27,-1.02 5.1,-4.83 5.95,-5.8 0.12,-0.13 0.23,-0.23 0.36,-0.36l3.28 -3.71c1.04,-1.16 2.73,-3.31 3.64,-4.65 0.39,-0.57 0.8,-1.08 1.17,-1.64 1.84,-2.79 3.78,-5.55 5.29,-8.55l2.79 -5.58c1.13,-2.54 2.25,-5.2 3.16,-7.94 0.47,-1.41 0.91,-2.72 1.34,-4.21 0.84,-2.92 1.62,-5.96 2.12,-8.98 0.27,-1.6 0.55,-3.13 0.74,-4.81 0.9,-7.91 0.97,-14.88 0.01,-22.8 -0.2,-1.63 -0.43,-3.27 -0.74,-4.81 -1.27,-6.39 -2.62,-11.37 -4.97,-17.23 -0.65,-1.62 -1.32,-3.27 -2.09,-4.83 -0.15,-0.3 -0.31,-0.59 -0.45,-0.92 -0.43,-1.01 -0.92,-1.83 -1.4,-2.79 -0.76,-1.52 -1.63,-2.97 -2.5,-4.42l-3.29 -5.07c-1.53,-2.15 -3.11,-4.27 -4.81,-6.29 -2.63,-3.13 -5.41,-6.13 -8.48,-8.83l-2.6 -2.31c-0.24,-0.22 -0.5,-0.4 -0.75,-0.62 -2.78,-2.34 -5.77,-4.49 -8.83,-6.45 -1.7,-1.09 -3.42,-2.14 -5.2,-3.09 -2.14,-1.15 -4.26,-2.29 -6.5,-3.22 -0.32,-0.13 -0.63,-0.28 -0.94,-0.43 -0.32,-0.15 -0.65,-0.29 -0.96,-0.41l-3.99 -1.56c-5.66,-2.22 -12.94,-3.82 -18.98,-4.66 -1.66,-0.23 -3.34,-0.36 -5.01,-0.54 -0.21,-0.03 -0.42,0 -0.64,-0.01 -0.27,-0.02 -0.3,-0.07 -0.65,-0.07 -1.35,-0.01 -2.68,-0.14 -4.11,-0.14 -3.63,0 -7.23,0.07 -10.8,0.45 -6.2,0.65 -12.39,1.9 -18.29,3.83 -2.08,0.68 -4.1,1.41 -6.13,2.23 -1.93,0.77 -3.88,1.62 -5.74,2.55l-2.72 1.4c-2.55,1.26 -5.41,3.06 -7.81,4.66 -1.37,0.91 -2.75,1.85 -4.05,2.87l-3.07 2.41c-1.53,1.25 -3.02,2.55 -4.44,3.92l-0.72 0.65c-1.15,1.15 -2.39,2.25 -3.43,3.49 -0.21,0.25 -0.45,0.44 -0.68,0.69 -0.14,0.15 -0.15,0.21 -0.29,0.36 -1.63,1.85 -3.29,3.7 -4.77,5.68 -0.99,1.32 -1.99,2.63 -2.91,4.01 -1.29,1.94 -2.61,3.88 -3.74,5.92 -0.18,0.32 -0.31,0.57 -0.5,0.87 -0.1,0.16 -0.13,0.25 -0.23,0.42l-1.25 2.28c-0.55,1.02 -1.37,2.63 -1.82,3.73l-3.18 7.85c-1,2.51 -1.86,5.88 -2.54,8.56 -0.75,2.96 -1.27,6.06 -1.75,9.35 -0.27,1.87 -0.4,3.77 -0.55,5.65 -0.13,1.59 -0.21,3.08 -0.21,4.69z"/>
 </g>
</svg>
